<mxfile host="app.diagrams.net" modified="2021-07-14T14:34:21.712Z" agent="5.0 (Windows NT 10.0; Win64; x64) AppleWebKit/537.36 (KHTML, like Gecko) Chrome/91.0.4472.124 Safari/537.36" etag="2VDsYeqBhSQQ-OHDPHe9" version="14.8.6" type="github">
  <diagram id="s0kK3envSmm_vPZ5UdHi" name="Page-1">
    <mxGraphModel dx="1888" dy="1647" grid="1" gridSize="10" guides="1" tooltips="1" connect="1" arrows="1" fold="1" page="1" pageScale="1" pageWidth="850" pageHeight="1100" math="0" shadow="0">
      <root>
        <mxCell id="0" />
        <mxCell id="1" parent="0" />
        <mxCell id="IBH5QyoZwOED5b6Hb1C7-21" style="edgeStyle=orthogonalEdgeStyle;rounded=0;orthogonalLoop=1;jettySize=auto;html=1;exitX=1;exitY=0.5;exitDx=0;exitDy=0;endArrow=ERoneToMany;endFill=0;startArrow=ERmandOne;startFill=0;" parent="1" source="IBH5QyoZwOED5b6Hb1C7-1" target="IBH5QyoZwOED5b6Hb1C7-9" edge="1">
          <mxGeometry relative="1" as="geometry" />
        </mxCell>
        <mxCell id="1Lqj4-aU47I2CfEqmCzf-34" style="edgeStyle=orthogonalEdgeStyle;rounded=0;orthogonalLoop=1;jettySize=auto;html=1;exitX=0;exitY=0.5;exitDx=0;exitDy=0;entryX=1;entryY=0.5;entryDx=0;entryDy=0;endArrow=ERoneToMany;endFill=0;startArrow=ERmandOne;startFill=0;" parent="1" source="IBH5QyoZwOED5b6Hb1C7-1" target="1Lqj4-aU47I2CfEqmCzf-14" edge="1">
          <mxGeometry relative="1" as="geometry" />
        </mxCell>
        <mxCell id="1Lqj4-aU47I2CfEqmCzf-50" style="edgeStyle=orthogonalEdgeStyle;rounded=0;orthogonalLoop=1;jettySize=auto;html=1;exitX=0.25;exitY=1;exitDx=0;exitDy=0;entryX=1;entryY=0.5;entryDx=0;entryDy=0;startArrow=ERmandOne;startFill=0;endArrow=ERoneToMany;endFill=0;" parent="1" source="IBH5QyoZwOED5b6Hb1C7-1" target="1Lqj4-aU47I2CfEqmCzf-37" edge="1">
          <mxGeometry relative="1" as="geometry" />
        </mxCell>
        <mxCell id="ljA7cv0OlBiPl5dgkO5F-6" style="edgeStyle=orthogonalEdgeStyle;rounded=0;orthogonalLoop=1;jettySize=auto;html=1;exitX=0.5;exitY=1;exitDx=0;exitDy=0;entryX=0;entryY=0.5;entryDx=0;entryDy=0;startArrow=ERmandOne;startFill=0;endArrow=ERoneToMany;endFill=0;" parent="1" source="IBH5QyoZwOED5b6Hb1C7-1" target="ljA7cv0OlBiPl5dgkO5F-1" edge="1">
          <mxGeometry relative="1" as="geometry" />
        </mxCell>
        <mxCell id="IBH5QyoZwOED5b6Hb1C7-1" value="tool_results" style="rounded=0;whiteSpace=wrap;html=1;" parent="1" vertex="1">
          <mxGeometry x="170" y="170" width="120" height="60" as="geometry" />
        </mxCell>
        <mxCell id="b0UbF2IqYbmgygXNMMR_-5" style="edgeStyle=orthogonalEdgeStyle;rounded=0;orthogonalLoop=1;jettySize=auto;html=1;exitX=1;exitY=0.5;exitDx=0;exitDy=0;entryX=0.083;entryY=1.07;entryDx=0;entryDy=0;entryPerimeter=0;" edge="1" parent="1" source="IBH5QyoZwOED5b6Hb1C7-3" target="IBH5QyoZwOED5b6Hb1C7-1">
          <mxGeometry relative="1" as="geometry" />
        </mxCell>
        <mxCell id="IBH5QyoZwOED5b6Hb1C7-3" value="user_id" style="ellipse;whiteSpace=wrap;html=1;" parent="1" vertex="1">
          <mxGeometry x="70" y="290" width="70" height="50" as="geometry" />
        </mxCell>
        <mxCell id="b0UbF2IqYbmgygXNMMR_-3" style="edgeStyle=orthogonalEdgeStyle;rounded=0;orthogonalLoop=1;jettySize=auto;html=1;exitX=0;exitY=0;exitDx=0;exitDy=0;entryX=0.75;entryY=1;entryDx=0;entryDy=0;" edge="1" parent="1" source="IBH5QyoZwOED5b6Hb1C7-5" target="IBH5QyoZwOED5b6Hb1C7-1">
          <mxGeometry relative="1" as="geometry" />
        </mxCell>
        <mxCell id="IBH5QyoZwOED5b6Hb1C7-5" value="tool_id" style="ellipse;whiteSpace=wrap;html=1;" parent="1" vertex="1">
          <mxGeometry x="270" y="280" width="70" height="50" as="geometry" />
        </mxCell>
        <mxCell id="IBH5QyoZwOED5b6Hb1C7-25" style="edgeStyle=orthogonalEdgeStyle;rounded=0;orthogonalLoop=1;jettySize=auto;html=1;exitX=0.5;exitY=1;exitDx=0;exitDy=0;entryX=0.5;entryY=0;entryDx=0;entryDy=0;startArrow=ERmandOne;startFill=0;endArrow=ERoneToMany;endFill=0;" parent="1" source="IBH5QyoZwOED5b6Hb1C7-9" target="IBH5QyoZwOED5b6Hb1C7-22" edge="1">
          <mxGeometry relative="1" as="geometry">
            <Array as="points">
              <mxPoint x="660" y="300" />
              <mxPoint x="790" y="300" />
            </Array>
          </mxGeometry>
        </mxCell>
        <mxCell id="IBH5QyoZwOED5b6Hb1C7-9" value="tool_result_rates" style="rounded=0;whiteSpace=wrap;html=1;" parent="1" vertex="1">
          <mxGeometry x="600" y="160" width="120" height="60" as="geometry" />
        </mxCell>
        <mxCell id="1Lqj4-aU47I2CfEqmCzf-36" style="edgeStyle=orthogonalEdgeStyle;rounded=0;orthogonalLoop=1;jettySize=auto;html=1;exitX=0.5;exitY=0;exitDx=0;exitDy=0;entryX=0.25;entryY=1;entryDx=0;entryDy=0;startArrow=none;startFill=0;endArrow=none;endFill=0;" parent="1" source="IBH5QyoZwOED5b6Hb1C7-10" target="IBH5QyoZwOED5b6Hb1C7-9" edge="1">
          <mxGeometry relative="1" as="geometry" />
        </mxCell>
        <mxCell id="IBH5QyoZwOED5b6Hb1C7-10" value="id" style="ellipse;whiteSpace=wrap;html=1;" parent="1" vertex="1">
          <mxGeometry x="555" y="280" width="70" height="50" as="geometry" />
        </mxCell>
        <mxCell id="IBH5QyoZwOED5b6Hb1C7-17" style="edgeStyle=orthogonalEdgeStyle;rounded=0;orthogonalLoop=1;jettySize=auto;html=1;exitX=0.5;exitY=1;exitDx=0;exitDy=0;entryX=0.11;entryY=0.01;entryDx=0;entryDy=0;entryPerimeter=0;" parent="1" source="IBH5QyoZwOED5b6Hb1C7-12" target="IBH5QyoZwOED5b6Hb1C7-9" edge="1">
          <mxGeometry relative="1" as="geometry" />
        </mxCell>
        <mxCell id="IBH5QyoZwOED5b6Hb1C7-12" value="tool_result_id" style="ellipse;whiteSpace=wrap;html=1;" parent="1" vertex="1">
          <mxGeometry x="450" y="20" width="130" height="60" as="geometry" />
        </mxCell>
        <mxCell id="IBH5QyoZwOED5b6Hb1C7-22" value="tool_result_rate_cards" style="rounded=0;whiteSpace=wrap;html=1;" parent="1" vertex="1">
          <mxGeometry x="715" y="440" width="150" height="60" as="geometry" />
        </mxCell>
        <mxCell id="1Lqj4-aU47I2CfEqmCzf-3" style="edgeStyle=orthogonalEdgeStyle;rounded=0;orthogonalLoop=1;jettySize=auto;html=1;exitX=0.5;exitY=1;exitDx=0;exitDy=0;entryX=1;entryY=0.5;entryDx=0;entryDy=0;" parent="1" source="IBH5QyoZwOED5b6Hb1C7-23" target="IBH5QyoZwOED5b6Hb1C7-9" edge="1">
          <mxGeometry relative="1" as="geometry" />
        </mxCell>
        <mxCell id="IBH5QyoZwOED5b6Hb1C7-23" value="tool_rate_selection_id" style="ellipse;whiteSpace=wrap;html=1;" parent="1" vertex="1">
          <mxGeometry x="600" y="25" width="170" height="55" as="geometry" />
        </mxCell>
        <mxCell id="1Lqj4-aU47I2CfEqmCzf-4" style="edgeStyle=orthogonalEdgeStyle;rounded=0;orthogonalLoop=1;jettySize=auto;html=1;exitX=1;exitY=0.5;exitDx=0;exitDy=0;" parent="1" source="IBH5QyoZwOED5b6Hb1C7-26" target="IBH5QyoZwOED5b6Hb1C7-22" edge="1">
          <mxGeometry relative="1" as="geometry" />
        </mxCell>
        <mxCell id="IBH5QyoZwOED5b6Hb1C7-26" value="id" style="ellipse;whiteSpace=wrap;html=1;" parent="1" vertex="1">
          <mxGeometry x="625" y="530" width="90" height="50" as="geometry" />
        </mxCell>
        <mxCell id="b0UbF2IqYbmgygXNMMR_-7" style="edgeStyle=orthogonalEdgeStyle;rounded=0;orthogonalLoop=1;jettySize=auto;html=1;exitX=1;exitY=0.5;exitDx=0;exitDy=0;entryX=0;entryY=0.75;entryDx=0;entryDy=0;" edge="1" parent="1" source="1Lqj4-aU47I2CfEqmCzf-1" target="IBH5QyoZwOED5b6Hb1C7-1">
          <mxGeometry relative="1" as="geometry" />
        </mxCell>
        <mxCell id="1Lqj4-aU47I2CfEqmCzf-1" value="id" style="ellipse;whiteSpace=wrap;html=1;" parent="1" vertex="1">
          <mxGeometry x="50" y="230" width="70" height="50" as="geometry" />
        </mxCell>
        <mxCell id="1Lqj4-aU47I2CfEqmCzf-6" style="edgeStyle=orthogonalEdgeStyle;rounded=0;orthogonalLoop=1;jettySize=auto;html=1;exitX=0.5;exitY=0;exitDx=0;exitDy=0;entryX=1;entryY=0.25;entryDx=0;entryDy=0;" parent="1" source="1Lqj4-aU47I2CfEqmCzf-5" target="IBH5QyoZwOED5b6Hb1C7-22" edge="1">
          <mxGeometry relative="1" as="geometry" />
        </mxCell>
        <mxCell id="1Lqj4-aU47I2CfEqmCzf-5" value="tool_result_rate_id" style="ellipse;whiteSpace=wrap;html=1;" parent="1" vertex="1">
          <mxGeometry x="880" y="500" width="170" height="55" as="geometry" />
        </mxCell>
        <mxCell id="1Lqj4-aU47I2CfEqmCzf-8" style="edgeStyle=orthogonalEdgeStyle;rounded=0;orthogonalLoop=1;jettySize=auto;html=1;exitX=1;exitY=0.5;exitDx=0;exitDy=0;" parent="1" source="1Lqj4-aU47I2CfEqmCzf-7" target="IBH5QyoZwOED5b6Hb1C7-22" edge="1">
          <mxGeometry relative="1" as="geometry" />
        </mxCell>
        <mxCell id="1Lqj4-aU47I2CfEqmCzf-7" value="card_id" style="ellipse;whiteSpace=wrap;html=1;" parent="1" vertex="1">
          <mxGeometry x="510" y="442.5" width="170" height="55" as="geometry" />
        </mxCell>
        <mxCell id="1Lqj4-aU47I2CfEqmCzf-13" style="edgeStyle=orthogonalEdgeStyle;rounded=0;orthogonalLoop=1;jettySize=auto;html=1;exitX=0.5;exitY=1;exitDx=0;exitDy=0;entryX=0.5;entryY=0;entryDx=0;entryDy=0;startArrow=ERmandOne;startFill=0;endArrow=ERoneToMany;endFill=0;" parent="1" source="1Lqj4-aU47I2CfEqmCzf-14" target="1Lqj4-aU47I2CfEqmCzf-19" edge="1">
          <mxGeometry relative="1" as="geometry" />
        </mxCell>
        <mxCell id="1Lqj4-aU47I2CfEqmCzf-14" value="tool_result_sorts" style="rounded=0;whiteSpace=wrap;html=1;" parent="1" vertex="1">
          <mxGeometry x="-225" y="310" width="120" height="60" as="geometry" />
        </mxCell>
        <mxCell id="1Lqj4-aU47I2CfEqmCzf-15" style="edgeStyle=orthogonalEdgeStyle;rounded=0;orthogonalLoop=1;jettySize=auto;html=1;exitX=1;exitY=0.5;exitDx=0;exitDy=0;entryX=0.25;entryY=1;entryDx=0;entryDy=0;" parent="1" source="1Lqj4-aU47I2CfEqmCzf-16" target="1Lqj4-aU47I2CfEqmCzf-14" edge="1">
          <mxGeometry relative="1" as="geometry" />
        </mxCell>
        <mxCell id="1Lqj4-aU47I2CfEqmCzf-16" value="id" style="ellipse;whiteSpace=wrap;html=1;" parent="1" vertex="1">
          <mxGeometry x="-315" y="390" width="70" height="50" as="geometry" />
        </mxCell>
        <mxCell id="1Lqj4-aU47I2CfEqmCzf-17" style="edgeStyle=orthogonalEdgeStyle;rounded=0;orthogonalLoop=1;jettySize=auto;html=1;exitX=0.5;exitY=1;exitDx=0;exitDy=0;entryX=0.11;entryY=0.01;entryDx=0;entryDy=0;entryPerimeter=0;" parent="1" source="1Lqj4-aU47I2CfEqmCzf-18" target="1Lqj4-aU47I2CfEqmCzf-14" edge="1">
          <mxGeometry relative="1" as="geometry" />
        </mxCell>
        <mxCell id="1Lqj4-aU47I2CfEqmCzf-18" value="tool_result_id" style="ellipse;whiteSpace=wrap;html=1;" parent="1" vertex="1">
          <mxGeometry x="-255" y="170" width="130" height="60" as="geometry" />
        </mxCell>
        <mxCell id="1Lqj4-aU47I2CfEqmCzf-19" value="tool_result_sort_cards" style="rounded=0;whiteSpace=wrap;html=1;" parent="1" vertex="1">
          <mxGeometry x="-240" y="500" width="150" height="60" as="geometry" />
        </mxCell>
        <mxCell id="1Lqj4-aU47I2CfEqmCzf-33" style="edgeStyle=orthogonalEdgeStyle;rounded=0;orthogonalLoop=1;jettySize=auto;html=1;exitX=0.5;exitY=1;exitDx=0;exitDy=0;entryX=0;entryY=0.5;entryDx=0;entryDy=0;" parent="1" source="1Lqj4-aU47I2CfEqmCzf-21" target="1Lqj4-aU47I2CfEqmCzf-14" edge="1">
          <mxGeometry relative="1" as="geometry" />
        </mxCell>
        <mxCell id="1Lqj4-aU47I2CfEqmCzf-21" value="tool_rate_selection_id" style="ellipse;whiteSpace=wrap;html=1;" parent="1" vertex="1">
          <mxGeometry x="-520" y="200" width="170" height="55" as="geometry" />
        </mxCell>
        <mxCell id="1Lqj4-aU47I2CfEqmCzf-22" style="edgeStyle=orthogonalEdgeStyle;rounded=0;orthogonalLoop=1;jettySize=auto;html=1;exitX=1;exitY=0.5;exitDx=0;exitDy=0;" parent="1" source="1Lqj4-aU47I2CfEqmCzf-23" target="1Lqj4-aU47I2CfEqmCzf-19" edge="1">
          <mxGeometry relative="1" as="geometry" />
        </mxCell>
        <mxCell id="1Lqj4-aU47I2CfEqmCzf-23" value="id" style="ellipse;whiteSpace=wrap;html=1;" parent="1" vertex="1">
          <mxGeometry x="-330" y="590" width="90" height="50" as="geometry" />
        </mxCell>
        <mxCell id="1Lqj4-aU47I2CfEqmCzf-24" style="edgeStyle=orthogonalEdgeStyle;rounded=0;orthogonalLoop=1;jettySize=auto;html=1;exitX=0.5;exitY=0;exitDx=0;exitDy=0;entryX=1;entryY=0.25;entryDx=0;entryDy=0;" parent="1" source="1Lqj4-aU47I2CfEqmCzf-25" target="1Lqj4-aU47I2CfEqmCzf-19" edge="1">
          <mxGeometry relative="1" as="geometry" />
        </mxCell>
        <mxCell id="1Lqj4-aU47I2CfEqmCzf-25" value="tool_result_sort_id" style="ellipse;whiteSpace=wrap;html=1;" parent="1" vertex="1">
          <mxGeometry x="-75" y="560" width="170" height="55" as="geometry" />
        </mxCell>
        <mxCell id="1Lqj4-aU47I2CfEqmCzf-31" style="edgeStyle=orthogonalEdgeStyle;rounded=0;orthogonalLoop=1;jettySize=auto;html=1;exitX=1;exitY=0.5;exitDx=0;exitDy=0;" parent="1" source="1Lqj4-aU47I2CfEqmCzf-27" target="1Lqj4-aU47I2CfEqmCzf-19" edge="1">
          <mxGeometry relative="1" as="geometry" />
        </mxCell>
        <mxCell id="1Lqj4-aU47I2CfEqmCzf-27" value="card_id" style="ellipse;whiteSpace=wrap;html=1;" parent="1" vertex="1">
          <mxGeometry x="-460" y="505" width="170" height="55" as="geometry" />
        </mxCell>
        <mxCell id="1Lqj4-aU47I2CfEqmCzf-37" value="tool_result_questions" style="rounded=0;whiteSpace=wrap;html=1;" parent="1" vertex="1">
          <mxGeometry x="-220" y="750" width="170" height="60" as="geometry" />
        </mxCell>
        <mxCell id="1Lqj4-aU47I2CfEqmCzf-41" style="edgeStyle=orthogonalEdgeStyle;rounded=0;orthogonalLoop=1;jettySize=auto;html=1;exitX=1;exitY=0.5;exitDx=0;exitDy=0;startArrow=none;startFill=0;endArrow=block;endFill=1;" parent="1" source="1Lqj4-aU47I2CfEqmCzf-38" target="1Lqj4-aU47I2CfEqmCzf-37" edge="1">
          <mxGeometry relative="1" as="geometry" />
        </mxCell>
        <mxCell id="1Lqj4-aU47I2CfEqmCzf-38" value="tool_rate_selection_id" style="ellipse;whiteSpace=wrap;html=1;" parent="1" vertex="1">
          <mxGeometry x="-440" y="750" width="160" height="55" as="geometry" />
        </mxCell>
        <mxCell id="1Lqj4-aU47I2CfEqmCzf-40" value="" style="edgeStyle=orthogonalEdgeStyle;rounded=0;orthogonalLoop=1;jettySize=auto;html=1;startArrow=none;startFill=0;endArrow=block;endFill=1;" parent="1" source="1Lqj4-aU47I2CfEqmCzf-39" target="1Lqj4-aU47I2CfEqmCzf-37" edge="1">
          <mxGeometry relative="1" as="geometry" />
        </mxCell>
        <mxCell id="1Lqj4-aU47I2CfEqmCzf-39" value="id" style="ellipse;whiteSpace=wrap;html=1;" parent="1" vertex="1">
          <mxGeometry x="-420" y="670" width="90" height="50" as="geometry" />
        </mxCell>
        <mxCell id="1Lqj4-aU47I2CfEqmCzf-43" style="edgeStyle=orthogonalEdgeStyle;rounded=0;orthogonalLoop=1;jettySize=auto;html=1;exitX=1;exitY=0.5;exitDx=0;exitDy=0;startArrow=none;startFill=0;endArrow=block;endFill=1;" parent="1" source="1Lqj4-aU47I2CfEqmCzf-42" target="1Lqj4-aU47I2CfEqmCzf-37" edge="1">
          <mxGeometry relative="1" as="geometry" />
        </mxCell>
        <mxCell id="1Lqj4-aU47I2CfEqmCzf-42" value="answers" style="ellipse;whiteSpace=wrap;html=1;" parent="1" vertex="1">
          <mxGeometry x="-390" y="820" width="160" height="55" as="geometry" />
        </mxCell>
        <mxCell id="b0UbF2IqYbmgygXNMMR_-4" style="edgeStyle=orthogonalEdgeStyle;rounded=0;orthogonalLoop=1;jettySize=auto;html=1;exitX=0;exitY=0;exitDx=0;exitDy=0;entryX=1;entryY=0.75;entryDx=0;entryDy=0;" edge="1" parent="1" source="1Lqj4-aU47I2CfEqmCzf-46" target="IBH5QyoZwOED5b6Hb1C7-1">
          <mxGeometry relative="1" as="geometry" />
        </mxCell>
        <mxCell id="1Lqj4-aU47I2CfEqmCzf-46" value="tool_part_id" style="ellipse;whiteSpace=wrap;html=1;" parent="1" vertex="1">
          <mxGeometry x="410" y="270" width="70" height="50" as="geometry" />
        </mxCell>
        <mxCell id="1Lqj4-aU47I2CfEqmCzf-49" style="edgeStyle=orthogonalEdgeStyle;rounded=0;orthogonalLoop=1;jettySize=auto;html=1;exitX=1;exitY=0.5;exitDx=0;exitDy=0;entryX=0.75;entryY=1;entryDx=0;entryDy=0;startArrow=none;startFill=0;endArrow=block;endFill=1;" parent="1" source="1Lqj4-aU47I2CfEqmCzf-48" target="1Lqj4-aU47I2CfEqmCzf-37" edge="1">
          <mxGeometry relative="1" as="geometry" />
        </mxCell>
        <mxCell id="1Lqj4-aU47I2CfEqmCzf-48" value="question_id" style="ellipse;whiteSpace=wrap;html=1;" parent="1" vertex="1">
          <mxGeometry x="-455" y="890" width="160" height="55" as="geometry" />
        </mxCell>
        <mxCell id="ljA7cv0OlBiPl5dgkO5F-14" style="edgeStyle=orthogonalEdgeStyle;rounded=0;orthogonalLoop=1;jettySize=auto;html=1;exitX=0.5;exitY=1;exitDx=0;exitDy=0;entryX=0.5;entryY=0;entryDx=0;entryDy=0;startArrow=ERmandOne;startFill=0;endArrow=ERoneToMany;endFill=0;" parent="1" source="ljA7cv0OlBiPl5dgkO5F-1" target="ljA7cv0OlBiPl5dgkO5F-7" edge="1">
          <mxGeometry relative="1" as="geometry" />
        </mxCell>
        <mxCell id="ljA7cv0OlBiPl5dgkO5F-17" style="edgeStyle=orthogonalEdgeStyle;rounded=0;orthogonalLoop=1;jettySize=auto;html=1;exitX=1;exitY=0.5;exitDx=0;exitDy=0;startArrow=none;startFill=0;endArrow=none;endFill=0;" parent="1" source="ljA7cv0OlBiPl5dgkO5F-1" target="ljA7cv0OlBiPl5dgkO5F-16" edge="1">
          <mxGeometry relative="1" as="geometry" />
        </mxCell>
        <mxCell id="ljA7cv0OlBiPl5dgkO5F-1" value="tool_result_custom_cluster_sorts" style="rounded=0;whiteSpace=wrap;html=1;" parent="1" vertex="1">
          <mxGeometry x="405" y="710" width="220" height="60" as="geometry" />
        </mxCell>
        <mxCell id="ljA7cv0OlBiPl5dgkO5F-3" style="edgeStyle=orthogonalEdgeStyle;rounded=0;orthogonalLoop=1;jettySize=auto;html=1;exitX=0.5;exitY=1;exitDx=0;exitDy=0;entryX=0.25;entryY=0;entryDx=0;entryDy=0;" parent="1" source="ljA7cv0OlBiPl5dgkO5F-2" target="ljA7cv0OlBiPl5dgkO5F-1" edge="1">
          <mxGeometry relative="1" as="geometry" />
        </mxCell>
        <mxCell id="ljA7cv0OlBiPl5dgkO5F-2" value="tool_result_id" style="ellipse;whiteSpace=wrap;html=1;" parent="1" vertex="1">
          <mxGeometry x="360" y="590" width="130" height="60" as="geometry" />
        </mxCell>
        <mxCell id="ljA7cv0OlBiPl5dgkO5F-5" style="edgeStyle=orthogonalEdgeStyle;rounded=0;orthogonalLoop=1;jettySize=auto;html=1;exitX=0.5;exitY=1;exitDx=0;exitDy=0;" parent="1" source="ljA7cv0OlBiPl5dgkO5F-4" target="ljA7cv0OlBiPl5dgkO5F-1" edge="1">
          <mxGeometry relative="1" as="geometry" />
        </mxCell>
        <mxCell id="ljA7cv0OlBiPl5dgkO5F-4" value="id" style="ellipse;whiteSpace=wrap;html=1;" parent="1" vertex="1">
          <mxGeometry x="500" y="580" width="90" height="50" as="geometry" />
        </mxCell>
        <mxCell id="ljA7cv0OlBiPl5dgkO5F-7" value="tool_result_custom_cluster_sort_cards" style="rounded=0;whiteSpace=wrap;html=1;" parent="1" vertex="1">
          <mxGeometry x="382.5" y="860" width="265" height="60" as="geometry" />
        </mxCell>
        <mxCell id="ljA7cv0OlBiPl5dgkO5F-8" style="edgeStyle=orthogonalEdgeStyle;rounded=0;orthogonalLoop=1;jettySize=auto;html=1;exitX=1;exitY=0.5;exitDx=0;exitDy=0;" parent="1" source="ljA7cv0OlBiPl5dgkO5F-9" target="ljA7cv0OlBiPl5dgkO5F-7" edge="1">
          <mxGeometry relative="1" as="geometry" />
        </mxCell>
        <mxCell id="ljA7cv0OlBiPl5dgkO5F-9" value="id" style="ellipse;whiteSpace=wrap;html=1;" parent="1" vertex="1">
          <mxGeometry x="310" y="970" width="90" height="50" as="geometry" />
        </mxCell>
        <mxCell id="ljA7cv0OlBiPl5dgkO5F-12" style="edgeStyle=orthogonalEdgeStyle;rounded=0;orthogonalLoop=1;jettySize=auto;html=1;exitX=1;exitY=0.5;exitDx=0;exitDy=0;" parent="1" source="ljA7cv0OlBiPl5dgkO5F-13" target="ljA7cv0OlBiPl5dgkO5F-7" edge="1">
          <mxGeometry relative="1" as="geometry" />
        </mxCell>
        <mxCell id="ljA7cv0OlBiPl5dgkO5F-13" value="card_id" style="ellipse;whiteSpace=wrap;html=1;" parent="1" vertex="1">
          <mxGeometry x="140" y="870" width="170" height="55" as="geometry" />
        </mxCell>
        <mxCell id="ljA7cv0OlBiPl5dgkO5F-18" style="edgeStyle=orthogonalEdgeStyle;rounded=0;orthogonalLoop=1;jettySize=auto;html=1;exitX=0.5;exitY=0;exitDx=0;exitDy=0;entryX=1;entryY=0.5;entryDx=0;entryDy=0;startArrow=none;startFill=0;endArrow=none;endFill=0;" parent="1" source="ljA7cv0OlBiPl5dgkO5F-15" target="ljA7cv0OlBiPl5dgkO5F-7" edge="1">
          <mxGeometry relative="1" as="geometry" />
        </mxCell>
        <mxCell id="ljA7cv0OlBiPl5dgkO5F-15" value="tool_result_custom_cluster_sort_id" style="ellipse;whiteSpace=wrap;html=1;" parent="1" vertex="1">
          <mxGeometry x="625" y="967.5" width="280" height="55" as="geometry" />
        </mxCell>
        <mxCell id="ljA7cv0OlBiPl5dgkO5F-16" value="cluster_name" style="ellipse;whiteSpace=wrap;html=1;" parent="1" vertex="1">
          <mxGeometry x="640" y="640" width="170" height="55" as="geometry" />
        </mxCell>
        <mxCell id="b0UbF2IqYbmgygXNMMR_-1" value="tool_result_custom_rate" style="rounded=0;whiteSpace=wrap;html=1;" vertex="1" parent="1">
          <mxGeometry x="160" y="-100" width="175" height="60" as="geometry" />
        </mxCell>
        <mxCell id="b0UbF2IqYbmgygXNMMR_-2" value="tool_result_id" style="ellipse;whiteSpace=wrap;html=1;" vertex="1" parent="1">
          <mxGeometry x="30" y="-60" width="130" height="60" as="geometry" />
        </mxCell>
      </root>
    </mxGraphModel>
  </diagram>
</mxfile>
